<?xml version="1.0" standalone="yes"?>
<svg xmlns="http://www.w3.org/2000/svg" width="190" height="114">
<path style="fill:#010101; stroke:none;" d="M0 0L0 70L11 68L11 67C4.59731 62.3813 0.617001 55.0166 2.70911 47C3.34807 44.5516 4.93602 40.0556 8.09414 40.0556C14.4024 40.0556 19.0766 51.2127 25 53.3966C35.2812 57.1873 52.0456 54 63 54C60.7682 81.2881 19.1587 78.3839 0 73L0 114L190 114L190 57L188 57L188 63L185 63L185 54L190 54L190 0L0 0z"/>
<path style="fill:#f4eeb9; stroke:none;" d="M7 38C2.38286 54.922 7.7916 71.935 29 68L28 64C40.41 75.7388 59.7638 72.1548 63 54C52.7353 54 34.2231 57.5838 25 52.9722C17.9503 49.4474 14.2511 41.3815 7 38z"/>
<path style="fill:#bc1c21; stroke:none;" d="M6 39C-4.17253 55.5167 7.11927 69.9507 25 70L25 69C14.5357 68.9064 4.55545 62.336 3.90818 51C3.66401 46.7238 6.06002 43.0747 6 39z"/>
<path style="fill:#be9b6b; stroke:none;" d="M6 40L7 41L6 40M5 42L6 43L5 42M4.33333 44.6667L4.66667 45.3333L4.33333 44.6667M3.33333 49.6667L3.66667 50.3333L3.33333 49.6667M17 51L17 52L18 54L22 55L17 51z"/>
<path style="fill:#bc1c21; stroke:none;" d="M66 51L66 63L69 63L69 58L73 58L73 56L69 56L69 54L73 54L73 51L66 51M75 51L75 63L78 63L78 58L79 58C80.1266 60.0059 80.8734 60.0059 82 58L83 58L83 63L86 63L86 51L81 56L80 56L78 51L75 51M89 51L89 63L91 63L91 51L89 51M92 51L95 54L95 63L98 63L101 51L92 51M102 51L102 63L105 63L105 51L102 51M111 51L111 63L114 63L114 58L118 58L118 56L114 56L114 54L118 54L118 51L111 51M141 51C137.858 56.35 132.391 62.4123 143 63L143 51L141 51M148 51L151 54L151 63L154 63L154 54L157 54L157 63L160 63C160.238 59.7976 160.542 57.512 164 57C161.084 61.5677 164.713 62.8574 169 63C168.968 53.8625 165.167 54.1821 157 54L157 51L148 51M18 52L19 53L18 52M19 53L24 59L19 53z"/>
<path style="fill:#9bcd5a; stroke:none;" d="M22 54L23 55L22 54z"/>
<path style="fill:#bc1c21; stroke:none;" d="M126 60C129.594 62.545 138.646 61.5915 133.968 55.7469C131.769 53.0006 120.353 53.3731 119.337 57.213C117.989 62.3123 123.469 63.8616 126 60M176 63L172 59L172 58L177 56C177.331 60.3401 180.56 65.2283 184 60L180 60L180 59L184 59C183.348 55.0955 181.451 53.5025 178 56C170.199 52.0762 167.748 61.684 176 63M185 54L185 63L188 63L190 54L185 54z"/>
<path style="fill:#be9b6b; stroke:none;" d="M4 55L5 56L4 55M19 55L20 56L19 55z"/>
<path style="fill:#9bcd5a; stroke:none;" d="M23 55L24 56L23 55z"/>
<path style="fill:#be9b6b; stroke:none;" d="M20 56L21 57L20 56M23 56L24 57L23 56M41 57L41 58L51 57L41 57M21 57L22 58L21 57M24 57L23 60L24 57z"/>
<path style="fill:#9bcd5a; stroke:none;" d="M40 57L41 58L40 57z"/>
<path style="fill:#bc1c21; stroke:none;" d="M43 57L43 58L51 58L43 57z"/>
<path style="fill:#9bcd5a; stroke:none;" d="M62.3333 57.6667L62.6667 58.3333L62.3333 57.6667z"/>
<path style="fill:#010101; stroke:none;" d="M121 58L121 59L124 60L124 57L121 58M130 57L130 60L133 60L133 57L130 57M138 58L138 59L141 60L141 57L138 58z"/>
<path style="fill:#be9b6b; stroke:none;" d="M22 58L23 59L22 58z"/>
<path style="fill:#9bcd5a; stroke:none;" d="M25 58L24 60L26 60L25 58z"/>
<path style="fill:#be9b6b; stroke:none;" d="M44 58L44 59L47 59L44 58M50 58L51 59L50 58M6 59L7 60L6 59z"/>
<path style="fill:#9bcd5a; stroke:none;" d="M61 59C54.0278 74.8411 39.7119 71.9682 28 64C33.1918 77.9302 65.6924 75.0833 61 59z"/>
<path style="fill:#010101; stroke:none;" d="M166 59L167 60L166 59z"/>
<path style="fill:#be9b6b; stroke:none;" d="M7 61L8 62L7 61z"/>
<path style="fill:#9bcd5a; stroke:none;" d="M26 61L27 62L26 61z"/>
<path style="fill:#be9b6b; stroke:none;" d="M8 62L9 63L8 62z"/>
<path style="fill:#f4eeb9; stroke:none;" d="M61 62L62 63L61 62z"/>
<path style="fill:#be9b6b; stroke:none;" d="M9 63L10 64L9 63z"/>
<path style="fill:#9bcd5a; stroke:none;" d="M27 63L28 64L27 63z"/>
<path style="fill:#be9b6b; stroke:none;" d="M10 64L11 65L10 64M11 65L12 66L11 65M13 66L14 67L13 66M15 67L16 68L15 67z"/>
<path style="fill:#f4eeb9; stroke:none;" d="M45 74C34.0347 69.0672 23.5341 70.1538 12 68.3256C9.41932 67.9166 1.61682 67.4445 0.921296 71.159C0.190862 75.0599 8.81758 74.998 11 75.2816C22.3585 76.7577 33.7631 76.0936 45 74z"/>
<path style="fill:#be9b6b; stroke:none;" d="M13 68L14 69L13 68M17.6667 68.3333L18.3333 68.6667L17.6667 68.3333M25 69L25 70L30 69L25 69M16 69L17 70L16 69M20 70L20 71L23 71L20 70M53 71L54 72L53 71z"/>
</svg>
